# xmcd CD database file
#
# Track frame offsets:
#	150
#	44658
#	92039
#	131610
#	158518
#	184992
#	215844
#	244545
#	275769
#
# Disc length: 4098 seconds
#
# Revision: 0
# Processed by: cddbd v1.5.1PL0 Copyright (c) Steve Scherf et al.
# Submitted via: CDex 1.50
#
DISCID=84100009
DTITLE=Don Pullen - Mosaic Select 13 Disc 2
DYEAR=2005
DGENRE=Jazz
TTITLE0=Warm Up
TTITLE1=Sing Me A Song Everlasting
TTITLE2=Another Reason To Celebrate
TTITLE3=Jana's Delight
TTITLE4=Once Upon A Time
TTITLE5=Warriors
TTITLE6=New Beginnings
TTITLE7=At The Cafe Centrale
TTITLE8=Reap The Whirlwind
EXTD=YEAR: 2005
EXTT0=
EXTT1=
EXTT2=
EXTT3=
EXTT4=
EXTT5=
EXTT6=
EXTT7=
EXTT8=
PLAYORDER=
